<svg width="179" height="179" viewBox="0 0 179 179" fill="none" xmlns="http://www.w3.org/2000/svg">
<path d="M44.7502 14.9167C40.794 14.9167 36.9999 16.4882 34.2025 19.2856C31.4051 22.0831 29.8335 25.8772 29.8335 29.8333V149.167C29.8335 153.123 31.4051 156.917 34.2025 159.714C36.9999 162.512 40.794 164.083 44.7502 164.083H134.25C138.206 164.083 142 162.512 144.798 159.714C147.595 156.917 149.167 153.123 149.167 149.167V73.3005C149.166 69.3447 147.594 65.5512 144.796 62.7544L101.329 19.2872C98.5323 16.4896 94.7388 14.9175 90.783 14.9167H44.7502ZM41.021 29.8333C41.021 28.8443 41.4139 27.8958 42.1132 27.1964C42.8126 26.4971 43.7611 26.1042 44.7502 26.1042H89.5002V59.6667C89.5002 63.6228 91.0717 67.4169 93.8692 70.2143C96.6666 73.0117 100.461 74.5833 104.417 74.5833H137.979V149.167C137.979 150.156 137.586 151.104 136.887 151.804C136.188 152.503 135.239 152.896 134.25 152.896H44.7502C43.7611 152.896 42.8126 152.503 42.1132 151.804C41.4139 151.104 41.021 150.156 41.021 149.167V29.8333ZM129.626 63.3958H104.417C103.428 63.3958 102.479 63.0029 101.78 62.3036C101.081 61.6042 100.688 60.6557 100.688 59.6667V34.4575L129.626 63.3958Z" fill="#345150"/>
</svg>
